<svg xmlns="http://www.w3.org/2000/svg" viewBox="0 0 87.3 78" width="24" height="24">
  <path d="m6.6 66.85 3.85 6.65c.8 1.4 1.95 2.5 3.3 3.3 1.4.8 2.94 1.2 4.5 1.2h51.8c1.56 0 3.1-.4 4.5-1.2 1.35-.8 2.5-1.9 3.3-3.3l3.85-6.65-75.1 0z" fill="#0066da"/>
  <path d="m45.2 66.85-15.1-26.2-23.5 26.2z" fill="#00ac47"/>
  <path d="m45.2 66.85 15.1-26.2 23.5 26.2z" fill="#ea4335"/>
  <path d="m45.15 66.85-15.1-26.2-15.1 26.2z" fill="#00832d"/>
  <path d="m45.15 66.85 15.1-26.2 15.1 26.2z" fill="#bf2b1d"/>
  <path d="m6.6 66.85 23.5-26.2-6.65-11.5-20.7 35.85c-.55.95-.55 2.15 0 3.2l3.85-1.35z" fill="#2684fc"/>
  <path d="m83.65 38.2c0-.25-.05-.5-.15-.75l-8.1-14.05-15.1 26.2 6.65 11.5 16.5-28.6c.15-.25.2-.5.2-.75l0-6.3z" fill="#ea4335"/>
  <path d="m45.15 14.75-30.2 52.1h60.4l-30.2-52.1z" fill="#fdebc8"/>
</svg> 