<svg xmlns="http://www.w3.org/2000/svg" viewBox="0 0 28 28" width="24" height="24">
  <path fill="#0364b8" d="M11.0582 5.85863H4.335C2.73154 5.85863 1.41724 7.14824 1.41724 8.72171V12.9019C1.41724 14.4754 2.73154 15.7649 4.335 15.7649H11.0582C12.6616 15.7649 13.9759 14.4754 13.9759 12.9019V8.72171C13.9759 7.14824 12.6616 5.85863 11.0582 5.85863Z"/>
  <path fill="#0078d4" d="M23.6651 17.9316H12.6616C11.0582 17.9316 9.74384 19.2212 9.74384 20.7947V24.9749C9.74384 26.5484 11.0582 27.838 12.6616 27.838H23.6651C25.2685 27.838 26.5828 26.5484 26.5828 24.9749V20.7947C26.5828 19.2212 25.2685 17.9316 23.6651 17.9316Z"/>
  <path fill="#1490df" d="M26.5828 9.65355H17.6866C16.0832 9.65355 14.7689 10.9431 14.7689 12.5166V16.6968C14.7689 18.2703 16.0832 19.5599 17.6866 19.5599H26.5828C28.1862 19.5599 29.5005 18.2703 29.5005 16.6968V12.5166C29.5005 10.9431 28.1862 9.65355 26.5828 9.65355Z"/>
  <path fill="#28a8ea" d="M11.0582 20.7947H7.34695C5.74349 20.7947 4.42919 22.0843 4.42919 23.6578V27.838C4.42919 29.4115 5.74349 30.7011 7.34695 30.7011H11.0582C12.6616 30.7011 13.9759 29.4115 13.9759 27.838V23.6578C13.9759 22.0843 12.6616 20.7947 11.0582 20.7947Z"/>
</svg> 